# xmcd CD database file
#
# Track frame offsets:
#	150
#	23276
#	41213
#	59738
#	76690
#	97911
#	116181
#	135971
#	154833
#	172848
#	200301
#	218445
#	235403
#
# Disc length: 3391 seconds
#
# Revision: 1
# Processed by: cddbd v1.5.2PL0 Copyright (c) Steve Scherf et al.
# Submitted via: CDex 1.70beta3
#
DISCID=9c0d3d0d
DTITLE=Chicago - Chicago XIX +3
DYEAR=1988
DGENRE=West Coast Rock
TTITLE0=Heart In Pieces
TTITLE1=I Don't Wanna Live Without Your Love
TTITLE2=I Stand Up
TTITLE3=We Can Last Forever
TTITLE4=Come In From The Night
TTITLE5=Look Away
TTITLE6=What Kind Of Man Would I Be?
TTITLE7=Runaround
TTITLE8=You're Not Alone
TTITLE9=Victorious
TTITLE10=Look Away (Single)
TTITLE11=We Can Last Forever (Single)
TTITLE12=What Kind Of Man Would I Be?  (Single)
EXTD=YEAR: 1988
EXTT0=
EXTT1=
EXTT2=
EXTT3=
EXTT4=
EXTT5=
EXTT6=
EXTT7=
EXTT8=
EXTT9=
EXTT10=
EXTT11=
EXTT12=
PLAYORDER=
